<svg xmlns="http://www.w3.org/2000/svg" xmlns:svg="http://www.w3.org/2000/svg" id="svg5" width="1024" height="1024" version="1.1" viewBox="0 0 102.4 102.4"><defs id="defs2"><linearGradient id="linearGradient6191"><stop style="stop-color:#0000e0;stop-opacity:1" id="stop6187" offset=".001"/><stop style="stop-color:#302ee0;stop-opacity:1" id="stop6189" offset="1"/></linearGradient><rect id="rect2366" width="658.133" height="386.598" x="77.815" y="165.917"/></defs><g id="layer5"><rect style="fill:#2f3b39;fill-opacity:1;fill-rule:evenodd;stroke:#000;stroke-width:.100157;stroke-linecap:round;stroke-linejoin:round;stroke-dasharray:none;stroke-opacity:0" id="rect17982" width="104.312" height="103.258" x="-.53" y="-.626"/></g><g id="layer4" transform="matrix(1.9979837,0,0,1.9300731,-31.500369,-76.654545)"><path style="fill:#008678;fill-opacity:1;stroke:#004d44;stroke-width:.271315px;stroke-linecap:butt;stroke-linejoin:miter;stroke-opacity:1" id="path6045-2-5" d="m 46.362539,74.934488 c 0.918168,3.678748 1.906888,9.946485 1.256528,10.668837 -0.677044,0.751991 -2.997967,0.827646 -3.574201,0.494839 -0.576236,-0.33281 -1.930426,-5.569122 -1.533508,-10.976011"/><path style="fill:#008678;fill-opacity:1;stroke:#004d44;stroke-width:.271315px;stroke-linecap:butt;stroke-linejoin:round;stroke-opacity:1" id="path6045-2" d="m 28.060968,74.778916 c -0.918168,3.678748 -1.906888,9.946485 -1.256528,10.668836 0.677045,0.751991 2.997967,0.827647 3.574201,0.494839 0.576236,-0.332809 1.930426,-5.569121 1.533508,-10.97601"/></g><g id="layer1" transform="matrix(1.9979837,0,0,1.9300731,-31.500369,-76.654545)"><text id="text2364" transform="matrix(0.27131585,0,0,0.27131585,-1.6867596,2.9752495)" xml:space="preserve" style="font-style:normal;font-weight:400;font-size:64px;line-height:1.25;font-family:sans-serif;letter-spacing:1px;white-space:pre;shape-inside:url(#rect2366);display:inline;fill:#f30087;fill-opacity:1;stroke:none"><tspan id="tspan22277" x="77.814" y="224.148"><tspan style="font-weight:800;font-family:Cantarell;-inkscape-font-specification:'Cantarell Ultra-Bold'" id="tspan22275">info</tspan></tspan></text><path style="fill:#00d2bd;fill-opacity:1;fill-rule:evenodd;stroke:#004d44;stroke-width:.271315px;stroke-linecap:round;stroke-linejoin:round;stroke-opacity:1" id="path4591" d="m 49.799506,64.292826 c 5.96766,-0.11633 8.119284,8.72524 16.353382,19.51623 C 56.138564,80.407047 53.909349,72.91032 51.994865,72.886659 50.52662,72.868513 56.038681,81.693505 37.532343,81.55841 16.119632,81.402098 19.558593,66.559431 20.44037,51.524171 c 0.270841,-1.028775 3.905472,-1.993383 3.887885,-0.9297 -0.09198,5.563288 -2.023447,9.778291 1.640081,13.740633 1.794867,1.941263 16.896117,0.09291 23.83117,-0.04228 z"/><path style="fill:#00d2bd;fill-opacity:1;stroke:#004d44;stroke-width:.309147px;stroke-linecap:butt;stroke-linejoin:miter;stroke-opacity:1" id="path4439" d="m 21.257741,46.862569 c -2.41034,0.926153 -4.742001,3.195544 -4.75833,4.467084 -0.01635,1.272828 1.513971,2.060973 5.6812,1.080092 5.996475,-1.411453 2.184201,-6.741045 -0.92287,-5.547176 z"/><ellipse style="fill:#fff;fill-opacity:.997563;fill-rule:evenodd;stroke:#004d44;stroke-width:.160746;stroke-linejoin:bevel;stroke-dasharray:none;stroke-opacity:1" id="path12099" cx="8.755" cy="52.563" rx="1.168" ry=".896" transform="matrix(0.96502072,-0.26217364,0.25187685,0.96775929,0,0)"/><ellipse style="fill:#000;fill-opacity:1;fill-rule:evenodd;stroke:#000;stroke-width:.271742;stroke-linejoin:bevel;stroke-dasharray:none;stroke-opacity:1" id="path12887" cx="21.312" cy="48.441" rx=".385" ry=".336"/></g><g id="layer2" transform="matrix(1.1673116,0,0,1.1673116,-16.88894,-13.788553)"><path style="fill:#00d2bd;fill-opacity:1;stroke:#004d44;stroke-width:.456426px;stroke-linecap:round;stroke-linejoin:round;stroke-opacity:1" id="path6045" d="m 32.886591,71.400764 c -1.571546,6.082566 -3.26385,16.445859 -2.150689,17.64022 1.158839,1.243368 5.131355,1.368459 6.117643,0.818184 0.986294,-0.550279 3.30414,-9.208177 2.62477,-18.148114"/><path style="fill:#00d2bd;fill-opacity:1;stroke:#004d44;stroke-width:.457146;stroke-linecap:round;stroke-linejoin:round;stroke-dasharray:none;stroke-opacity:1" id="path6045-37" d="m 70.095129,71.801066 c 1.571547,6.082568 3.263851,16.44586 2.15069,17.640221 -1.158839,1.243367 -5.131355,1.368458 -6.117644,0.818183 -0.986293,-0.550278 -3.304139,-9.208177 -2.624769,-18.148112"/></g></svg>